<?xml version="1.0" encoding="UTF-8"?>
<!DOCTYPE svg PUBLIC "-//W3C//DTD SVG 1.1//EN" "http://www.w3.org/Graphics/SVG/1.1/DTD/svg11.dtd">
<!-- Creator: CorelDRAW 2020 (64 Bit) -->
<svg xmlns="http://www.w3.org/2000/svg" xml:space="preserve" width="103.23mm" height="41.9513mm" version="1.1" style="shape-rendering:geometricPrecision; text-rendering:geometricPrecision; image-rendering:optimizeQuality; fill-rule:evenodd; clip-rule:evenodd"
viewBox="0 0 10489.81 4262.94"
 xmlns:xlink="http://www.w3.org/1999/xlink"
 xmlns:xodm="http://www.corel.com/coreldraw/odm/2003">
 <defs>
  <style type="text/css">
   <![CDATA[
    .fil0 {fill:#FEFEFE;fill-rule:nonzero}
   ]]>
  </style>
 </defs>
 <g id="Camada_x0020_1">
  <metadata id="CorelCorpID_0Corel-Layer"/>
  <path class="fil0" d="M-0 3826.04l1128.3 0c110.28,0 224.82,-13.43 343.59,-40.29 118.77,-26.87 226.23,-69.28 322.37,-127.25 96.15,-57.97 175.33,-132.91 237.54,-224.82 62.21,-91.9 93.31,-202.9 93.31,-332.98 0,-144.21 -38.17,-262.28 -114.52,-354.18 -76.35,-91.9 -176.74,-164.72 -301.16,-218.44 -124.43,-53.73 -263.69,-91.9 -417.82,-114.53 -154.11,-22.62 -310.35,-36.75 -468.71,-42.41 -158.36,-5.66 -309.65,-7.07 -453.87,-4.24 -144.21,2.82 -267.23,2.82 -369.03,0l0 -483.56c96.15,-2.82 216.33,-2.82 360.55,0 144.22,2.82 294.8,1.41 451.75,-4.24 156.95,-5.66 313.89,-19.09 470.83,-40.3 156.95,-21.21 297.63,-57.26 422.05,-108.16 124.43,-50.9 225.52,-120.89 303.28,-209.97 77.77,-89.08 116.65,-204.31 116.65,-345.7 0,-132.9 -30.39,-246.02 -91.19,-339.34 -60.8,-93.32 -139.28,-169.67 -235.41,-229.05 -96.15,-59.38 -203.61,-102.51 -322.38,-129.38 -118.77,-26.86 -234.7,-40.29 -347.82,-40.29l-1128.3 0 0 -436.9 1543.99 0c158.36,0 305.41,30.39 441.14,91.2 135.74,60.8 253.1,143.5 352.07,248.14 98.97,104.62 176.03,226.23 231.17,364.79 55.15,138.56 82.72,284.19 82.72,436.89 0,101.81 -19.08,197.25 -57.26,286.32 -38.18,89.08 -87.66,173.91 -148.46,254.5 -60.8,80.59 -128.67,156.95 -203.6,229.05 -74.94,72.12 -149.17,142.1 -222.69,209.97l0 21.21c73.52,67.87 147.75,137.85 222.69,209.97 74.93,72.11 142.8,148.45 203.6,229.05 60.8,80.59 110.28,165.42 148.46,254.5 38.18,89.08 57.26,184.52 57.26,286.31 0,152.71 -28.28,298.34 -84.83,436.9 -56.56,138.56 -134.33,259.46 -233.3,362.67 -98.97,103.22 -215.62,185.93 -349.94,248.15 -134.33,62.21 -280.66,93.31 -439.02,93.31l-1543.99 0 0 -436.9zm4844.07 89.08l0 347.82 -1917.27 0 0 -347.82 1917.27 0zm-1552.48 -3045.57l0 3376.42 -364.79 0 0 -3376.42 364.79 0zm3673.34 3045.57l0 347.82 -1917.27 0 0 -347.82 1917.27 0zm0 -1531.27l0 347.82 -1917.27 0 0 -347.82 1917.27 0zm0 -1531.26l0 347.81 -1917.27 0 0 -347.81 1917.27 0zm1675.48 1688.2l-1395.53 -1671.24 479.31 0 1115.58 1378.57c8.48,8.48 15.56,12.72 21.21,12.72l4.25 8.48 8.48 -8.48c5.65,0 12.72,-4.24 21.21,-12.72l1115.58 -1378.57 479.31 0 -1420.98 1700.94 0 1692.45 -390.24 0 0 -1671.24 -38.18 -50.9z"/>
 </g>
</svg>
