<?xml version="1.0" encoding="UTF-8"?>
<!DOCTYPE svg PUBLIC "-//W3C//DTD SVG 1.1//EN" "http://www.w3.org/Graphics/SVG/1.1/DTD/svg11.dtd">
<!-- Creator: CorelDRAW 2020 (64 Bit) -->
<svg xmlns="http://www.w3.org/2000/svg" xml:space="preserve" width="50.2826mm" height="50.8449mm" version="1.1" style="shape-rendering:geometricPrecision; text-rendering:geometricPrecision; image-rendering:optimizeQuality; fill-rule:evenodd; clip-rule:evenodd"
viewBox="0 0 1248.48 1262.44"
 xmlns:xlink="http://www.w3.org/1999/xlink"
 xmlns:xodm="http://www.corel.com/coreldraw/odm/2003">
 <defs>
  <style type="text/css">
   <![CDATA[
    .fil0 {fill:#FEFEFE;fill-rule:nonzero}
   ]]>
  </style>
 </defs>
 <g id="Camada_x0020_1">
  <metadata id="CorelCorpID_0Corel-Layer"/>
  <path class="fil0" d="M662.63 197.62c-6.2,-11.52 0.31,-24.93 14.53,-29.95 14.22,-5.02 30.78,0.25 36.98,11.77l531.99 989.62c6.2,11.52 -0.31,24.93 -14.53,29.95 -4.1,1.45 -8.4,2.04 -12.59,1.87l-1033.27 -0.53c-15.5,0 -28.07,-10.18 -28.07,-22.73 0,-12.55 12.57,-22.73 28.07,-22.73l991.75 0.51 -514.87 -957.77z"/>
  <path class="fil0" d="M872.14 274.26c7.11,11.18 1.69,24.91 -12.11,30.67 -13.8,5.76 -30.75,1.37 -37.86,-9.81l-139.5 -219.29 -611.84 1141.13 278.84 -0.09c15.5,0 28.07,10.18 28.07,22.73 0,12.55 -12.57,22.73 -28.07,22.73l-321.62 0.1c-3.71,-0.01 -7.49,-0.61 -11.12,-1.87 -14.22,-4.97 -20.78,-18.34 -14.64,-29.86l651.82 -1215.7c2.33,-5.2 6.99,-9.74 13.54,-12.47 13.8,-5.76 30.75,-1.37 37.86,9.81l166.62 261.92z"/>
  <path class="fil0" d="M572.51 506.06l47.85 0c4.67,0 9.53,-0.46 14.56,-1.38 5.04,-0.92 9.6,-2.37 13.68,-4.36 4.07,-1.99 7.43,-4.55 10.07,-7.69 2.63,-3.15 3.96,-6.95 3.96,-11.4 0,-4.94 -1.62,-8.98 -4.86,-12.12 -3.24,-3.15 -7.5,-5.64 -12.77,-7.48 -5.27,-1.84 -11.18,-3.15 -17.72,-3.92 -6.54,-0.77 -13.16,-1.26 -19.88,-1.45 -6.72,-0.19 -13.13,-0.24 -19.25,-0.14 -6.12,0.09 -11.34,0.09 -15.65,0l0 -16.55c4.08,-0.1 9.17,-0.1 15.29,0 6.11,0.09 12.5,0.05 19.16,-0.15 6.66,-0.19 13.31,-0.65 19.97,-1.38 6.66,-0.73 12.62,-1.96 17.9,-3.7 5.28,-1.74 9.56,-4.14 12.86,-7.19 3.3,-3.05 4.95,-6.99 4.95,-11.83 0,-4.55 -1.29,-8.42 -3.87,-11.62 -2.58,-3.2 -5.91,-5.81 -9.98,-7.84 -4.08,-2.03 -8.64,-3.51 -13.67,-4.43 -5.04,-0.92 -9.95,-1.38 -14.75,-1.38l-47.85 0 0 -14.95 65.48 0c6.71,0 12.95,1.04 18.7,3.12 5.76,2.08 10.74,4.91 14.93,8.49 4.2,3.58 7.47,7.74 9.81,12.49 2.34,4.74 3.51,9.73 3.51,14.95 0,3.49 -0.81,6.75 -2.43,9.8 -1.62,3.05 -3.72,5.95 -6.3,8.71 -2.57,2.76 -5.45,5.37 -8.63,7.84 -3.18,2.47 -6.33,4.86 -9.44,7.19l0 0.72c3.11,2.32 6.27,4.72 9.44,7.19 3.18,2.47 6.06,5.08 8.63,7.84 2.58,2.76 4.68,5.66 6.3,8.71 1.62,3.05 2.43,6.31 2.43,9.8 0,5.23 -1.2,10.21 -3.6,14.95 -2.4,4.74 -5.7,8.88 -9.89,12.41 -4.2,3.53 -9.14,6.37 -14.84,8.49 -5.7,2.13 -11.9,3.2 -18.61,3.2l-65.48 0 0 -14.95z"/>
  <path class="fil0" d="M763.01 702.12l0 14.95 -101.64 0 0 -14.95 101.64 0zm-82.21 -130.23l0 144.46 -19.43 0 0 -144.46 19.43 0z"/>
  <path class="fil0" d="M852.95 898.19l0 14.95 -101.64 0 0 -14.95 101.64 0zm0 -65.48l0 14.96 -101.64 0 0 -14.96 101.64 0zm0 -65.48l0 14.95 -101.64 0 0 -14.95 101.64 0z"/>
  <path class="fil0" d="M919.32 1035.45l-73.93 -71.43 25.37 0 59.18 58.94c0.12,0.1 0.3,0.22 0.54,0.36 0.24,0.14 0.42,0.22 0.54,0.22l0.18 0.15c0,0.09 0.06,0.14 0.18,0.14l0.36 -0.29c0.12,0 0.3,-0.07 0.54,-0.22 0.24,-0.15 0.42,-0.27 0.54,-0.36l59.18 -58.94 25.37 0 -75.37 72.74 0 72.45 -20.51 0 0 -71.43 -2.16 -2.32z"/>
 </g>
</svg>
